<svg version="1.1" xmlns="http://www.w3.org/2000/svg" width="1280" height="1280">

<path d="M0 0 C3.13604662 3.92005827 5.75453202 7.73109045 8.265625 12.03125 C8.66271667 12.70361694 9.05980835 13.37598389 9.46893311 14.06872559 C10.73294379 16.21035462 11.99173146 18.35499319 13.25 20.5 C14.89924853 23.30314202 16.55064577 26.10501144 18.203125 28.90625 C18.60988968 29.59616531 19.01665436 30.28608063 19.43574524 30.99690247 C22.58964254 36.33435528 25.81641465 41.62195893 29.07861328 46.89404297 C32.35070996 52.18344753 35.58188914 57.49768674 38.8125 62.8125 C39.34683655 63.69133347 39.34683655 63.69133347 39.89196777 64.58792114 C46.32965586 75.18259017 52.66259892 85.83754167 58.97451782 96.50747681 C63.73767062 104.55561195 68.54184558 112.56982444 73.5 120.5 C78.88324357 129.11007201 84.08015391 137.82342076 89.25 146.5625 C95.32177955 156.82453505 101.42719428 167.06351279 107.625 177.25 C108.1460733 178.10665756 108.1460733 178.10665756 108.67767334 178.98062134 C111.11612963 182.98849531 113.55765918 186.99449236 116 191 C118.79385613 195.58200262 121.58612202 200.16496536 124.375 204.75 C124.72225128 205.32075256 125.06950256 205.89150513 125.42727661 206.47955322 C131.62064209 216.66566322 137.70592403 226.91407847 143.77484131 237.17468262 C149.09849878 246.17080106 154.49468381 255.11349866 160 264 C165.92350056 273.56152087 171.71159322 283.19431725 177.4375 292.875 C185.14742904 305.90810924 192.95516303 318.87739178 200.83665466 331.80737305 C203.38035981 335.9806062 205.91820846 340.15736069 208.453125 344.3359375 C208.82138901 344.94284927 209.18965302 345.54976105 209.56907654 346.17506409 C211.38369357 349.16584442 213.19746081 352.1571358 215.01000977 355.14916992 C218.15285163 360.33243345 221.30605775 365.50764878 224.51171875 370.65234375 C225.03330566 371.49265137 225.55489258 372.33295898 226.09228516 373.19873047 C227.04064463 374.72347581 227.99436307 376.24490726 228.95458984 377.76220703 C232 382.66636338 232 382.66636338 232 386 C229.68701172 387.69482422 229.68701172 387.69482422 226.4296875 389.5546875 C225.84583786 389.8924118 225.26198822 390.23013611 224.66044617 390.57809448 C222.73769356 391.68737909 220.80645919 392.78095772 218.875 393.875 C217.53959577 394.64235961 216.20488319 395.41092407 214.87084961 396.18066406 C212.18029179 397.73204709 209.4870022 399.27850727 206.79150391 400.82128906 C201.68607106 403.74840603 196.6225694 406.74532127 191.5625 409.75 C189.7931028 410.79710155 188.02357238 411.84397803 186.25390625 412.890625 C185.39039551 413.40173828 184.52688477 413.91285156 183.63720703 414.43945312 C179.09280901 417.12856553 174.54627274 419.8140587 170 422.5 C168.16665695 423.58331689 166.33332361 424.66665021 164.5 425.75 C131.50000001 445.24999999 131.50000001 445.24999999 128.7512207 446.87426758 C126.9138054 447.96002039 125.07640311 449.04579521 123.23901367 450.1315918 C118.71823958 452.80308561 114.19725666 455.47422455 109.67578125 458.14453125 C107.88800379 459.20049197 106.10024351 460.2564818 104.3125 461.3125 C103.41281494 461.84391602 102.51312988 462.37533203 101.58618164 462.92285156 C96.59897908 465.86973541 91.61440187 468.82097996 86.6328125 471.77734375 C74.69084049 478.86363421 62.73448817 485.92336636 50.75 492.9375 C39.8190084 499.33316818 39.8190084 499.33316818 28.9375 505.8125 C27.2978125 506.79283203 27.2978125 506.79283203 25.625 507.79296875 C22.68238008 509.56784208 19.77901706 511.40101352 16.875 513.23828125 C15.52547241 514.07879028 15.52547241 514.07879028 14.14868164 514.9362793 C12.38131857 516.03712129 10.6221702 517.15129713 8.87280273 518.28051758 C2.88483803 521.98381394 2.88483803 521.98381394 -1.203125 522.05859375 C-4.47984251 520.81838363 -7.21814498 519.3070939 -10.1875 517.4375 C-11.52127006 516.61188164 -12.85598512 515.78778886 -14.19140625 514.96484375 C-14.94437988 514.49804199 -15.69735352 514.03124023 -16.47314453 513.55029297 C-21.48784173 510.473643 -26.56098751 507.49450556 -31.625 504.5 C-32.78121734 503.81502364 -33.93738541 503.1299641 -35.09350586 502.44482422 C-44.42363582 496.91843652 -53.7786187 491.43483669 -63.13775635 485.95776367 C-70.73742317 481.50973581 -78.31314401 477.02772891 -85.8515625 472.4765625 C-91.82838938 468.89046637 -97.85802562 465.39313851 -103.875 461.875 C-113.11665709 456.47102028 -122.33018696 451.02541914 -131.5 445.5 C-141.03011587 439.75888359 -150.60780707 434.10473016 -160.21170044 428.48840332 C-172.44296141 421.33548593 -184.63435664 414.11723851 -196.81933594 406.88574219 C-202.7657037 403.36027822 -208.71921776 399.84689568 -214.67358398 396.33496094 C-220.46503326 392.91638528 -226.23749948 389.46714402 -232 386 C-229.30936735 382.73999318 -225.78635432 381.31130387 -222.01953125 379.62109375 C-220.95807137 379.13528587 -220.95807137 379.13528587 -219.87516785 378.6396637 C-217.52388224 377.56569609 -215.16827735 376.50157446 -212.8125 375.4375 C-211.14755612 374.67954223 -209.48284673 373.92106917 -207.81835938 373.16210938 C-194.22332831 366.97214286 -180.59427654 360.85666482 -166.96582031 354.74072266 C-155.6383495 349.65465052 -144.34061437 344.50704576 -133.0625 339.3125 C-126.89284694 336.47129467 -126.89284694 336.47129467 -123.8671875 335.078125 C-123.12182236 334.73491714 -122.37645721 334.39170929 -121.60850525 334.0381012 C-113.97731053 330.52613303 -106.33512629 327.03852517 -98.6875 323.5625 C-97.6911705 323.10960098 -97.6911705 323.10960098 -96.67471313 322.64755249 C-88.57383474 318.96693627 -80.46429188 315.30588908 -72.34765625 311.66015625 C-71.52201172 311.28924866 -70.69636719 310.91834106 -69.84570312 310.53619385 C-66.47536021 309.02229756 -63.1049786 307.50849082 -59.73382568 305.99639893 C-50.2697746 301.7506735 -40.82282784 297.47188187 -31.41015625 293.11328125 C-30.55527618 292.71792175 -29.70039612 292.32256226 -28.8196106 291.91522217 C-24.73014819 290.02316834 -20.64360258 288.12521576 -16.56152344 286.21728516 C-15.09969633 285.53920054 -13.63778685 284.86129345 -12.17578125 284.18359375 C-11.19110619 283.71932732 -11.19110619 283.71932732 -10.1865387 283.24568176 C-6.69150897 281.63242545 -3.84262636 280.76852527 0 280 C0 187.6 0 95.2 0 0 Z " fill="#F37F67" transform="translate(640,262)" data-index="1" style="opacity: 1;"></path>
<path d="M0 0 C3.37511063 1.27667713 6.43121349 2.73201335 9.52734375 4.58203125 C10.38980713 5.09475586 11.25227051 5.60748047 12.14086914 6.13574219 C13.06375732 6.68907227 13.98664551 7.24240234 14.9375 7.8125 C16.93485342 9.00137334 18.93225041 10.19017349 20.9296875 11.37890625 C21.94514648 11.98492676 22.96060547 12.59094727 24.00683594 13.21533203 C28.51842493 15.90535777 33.03998086 18.57840414 37.5625 21.25 C38.44550781 21.77215088 39.32851563 22.29430176 40.23828125 22.83227539 C48.76291114 27.86935174 57.30898429 32.86963581 65.85403442 37.87194824 C73.54795704 42.37704739 81.2187474 46.91528107 88.8515625 51.5234375 C94.82838938 55.10953363 100.85802562 58.60686149 106.875 62.125 C116.11665866 67.52898064 125.33011898 72.97469167 134.5 78.5 C143.38292962 83.8499301 152.30091837 89.13675331 161.25 94.375 C161.8538855 94.72850525 162.457771 95.0820105 163.07995605 95.44622803 C167.38554713 97.96601808 171.69260818 100.48328977 176 103 C180.30968075 105.5180476 184.61862401 108.03734443 188.92636108 110.55871582 C190.73479314 111.61610853 192.54468631 112.67096583 194.35473633 113.72558594 C200.34150064 117.22073623 206.28295987 120.77333327 212.16796875 124.4375 C213.31979802 125.14923167 214.4718128 125.86066322 215.62402344 126.57177734 C217.77821087 127.90663708 219.92396706 129.25523427 222.05957031 130.61962891 C223.01831055 131.21179199 223.97705078 131.80395508 224.96484375 132.4140625 C225.7962085 132.9395166 226.62757324 133.4649707 227.48413086 134.00634766 C230.7898544 135.31195608 232.59997762 134.95083736 236 134 C238.64640696 132.75989807 238.64640696 132.75989807 241.2109375 131.11328125 C242.68856567 130.21101807 242.68856567 130.21101807 244.19604492 129.29052734 C245.76962769 128.31140381 245.76962769 128.31140381 247.375 127.3125 C249.05502161 126.28523973 250.73506159 125.25800755 252.41636658 124.23284912 C253.56875134 123.53000123 254.72048978 122.82609259 255.87159729 122.12115479 C261.59441649 118.62041604 267.38396316 115.23960382 273.1875 111.875 C280.84911172 107.42217219 288.49809775 102.94955201 296.125 98.4375 C297.03008301 97.90205566 297.93516602 97.36661133 298.86767578 96.81494141 C301.57872458 95.21042334 304.28940087 93.60527758 307 92 C310.52031997 89.91579793 314.04113272 87.83243212 317.5625 85.75 C318.44703857 85.22688232 319.33157715 84.70376465 320.24291992 84.16479492 C327.49276638 79.881464 334.75766562 75.62411625 342.02459717 71.36987305 C351.15412699 66.02516123 360.27249929 60.6659498 369.33203125 55.203125 C380.16074066 48.68352224 391.06975689 42.29512913 401.98046875 35.9140625 C413.85037859 28.97138878 425.70795906 22.01200979 437.5 14.9375 C439.04469971 14.01155029 439.04469971 14.01155029 440.62060547 13.06689453 C444.89391375 10.49814353 449.1565496 7.91818186 453.37109375 5.25390625 C453.98984375 4.86404541 454.60859375 4.47418457 455.24609375 4.07250977 C456.78258824 3.09822855 458.31165372 2.11225601 459.83984375 1.125 C460.55269531 0.75375 461.26554687 0.3825 462 0 C462.66 0.33 463.32 0.66 464 1 C462.83597656 2.60101562 462.83597656 2.60101562 461.6484375 4.234375 C455.69479609 12.44114888 449.79683608 20.68159721 444 29 C439.03563826 36.12331696 433.99611137 43.18540381 428.89453125 50.2109375 C424.2647985 56.6006413 419.74304594 63.06257904 415.23266602 69.53686523 C411.35817799 75.088202 407.42051683 80.5886333 403.4375 86.0625 C398.98968443 92.17580311 394.67654457 98.36528733 390.4375 104.625 C385.92771166 111.28117989 381.24402438 117.75913755 376.37646484 124.15722656 C372.48978229 129.28739141 368.82525013 134.54295748 365.20996094 139.86669922 C361.77166166 144.91631836 358.22158851 149.87462896 354.625 154.8125 C350.09806838 161.03240858 345.69432303 167.32174293 341.375 173.6875 C337.06629601 180.03463392 332.65628941 186.28161545 328.08886719 192.44482422 C324.18113666 197.72435747 320.39279734 203.08245089 316.61865234 208.45800781 C312.98047079 213.63205092 309.28230647 218.75942932 305.5625 223.875 C301.05887862 230.07522799 296.67892801 236.34715397 292.375 242.6875 C288.066153 249.0345408 283.65629367 255.2816097 279.08886719 261.44482422 C275.18113666 266.72435747 271.39279734 272.08245089 267.61865234 277.45800781 C263.98047192 282.63204931 260.28240525 287.75950202 256.5625 292.875 C251.3392791 300.06333845 246.28301316 307.35480643 241.31274414 314.72021484 C238.67927057 318.6103356 236.00923689 322.3845859 233 326 C229.72774588 324.90924863 229.35826322 324.48511129 227.50390625 321.78125 C226.79923218 320.76720093 226.79923218 320.76720093 226.08032227 319.73266602 C225.57944092 318.99588623 225.07855957 318.25910645 224.5625 317.5 C223.47933154 315.93608371 222.39599361 314.37228479 221.3125 312.80859375 C220.76078125 312.00663574 220.2090625 311.20467773 219.640625 310.37841797 C217.14086464 306.75450942 214.60301406 303.15790171 212.0625 299.5625 C211.57007813 298.86366699 211.07765625 298.16483398 210.5703125 297.44482422 C206.94373332 292.3067789 203.25958795 287.21244108 199.5625 282.125 C195.0590758 275.92462359 190.67893295 269.65285332 186.375 263.3125 C182.066153 256.9654592 177.65629367 250.7183903 173.08886719 244.55517578 C169.18113666 239.27564253 165.39279734 233.91754911 161.61865234 228.54199219 C157.98047079 223.36794908 154.28230647 218.24057068 150.5625 213.125 C146.05887862 206.92477201 141.67892801 200.65284603 137.375 194.3125 C133.066153 187.9654592 128.65629367 181.7183903 124.08886719 175.55517578 C120.18113666 170.27564253 116.39279734 164.91754911 112.61865234 159.54199219 C108.98047079 154.36794908 105.28230647 149.24057068 101.5625 144.125 C97.05887862 137.92477201 92.67892801 131.65284603 88.375 125.3125 C84.066153 118.9654592 79.65629367 112.7183903 75.08886719 106.55517578 C71.18113666 101.27564253 67.39279734 95.91754911 63.61865234 90.54199219 C59.98047079 85.36794908 56.28230647 80.24057068 52.5625 75.125 C48.05887862 68.92477201 43.67892801 62.65284603 39.375 56.3125 C35.06821457 49.96849594 30.66052725 43.72435713 26.09545898 37.56396484 C22.12580434 32.20050114 18.27158067 26.76040489 14.4362793 21.30029297 C11.98015189 17.80421275 9.51524922 14.31562486 7.01953125 10.84765625 C6.55232666 10.19804932 6.08512207 9.54844238 5.60375977 8.87915039 C4.71947268 7.6516738 3.8333216 6.42553731 2.94506836 5.20092773 C0 1.10977606 0 1.10977606 0 0 Z " fill="#01B3E2" transform="translate(408,692)" data-index="2" style="opacity: 1;"></path>
<path d="M0 0 C0.33 0 0.66 0 1 0 C1 92.4 1 184.8 1 280 C-12.2 285.94 -25.4 291.88 -39 298 C-53.06951399 304.45417593 -53.06951399 304.45417593 -67.1328125 310.921875 C-75.51661672 314.78123108 -83.91024951 318.61848047 -92.3125 322.4375 C-93.3088295 322.89039902 -93.3088295 322.89039902 -94.32528687 323.35244751 C-104.93871103 328.17463336 -115.57037845 332.95581961 -126.20465088 337.73181152 C-127.04461609 338.10906372 -127.8845813 338.48631592 -128.75 338.875 C-130.00946442 339.4406366 -130.00946442 339.4406366 -131.29437256 340.0177002 C-143.535208 345.5173719 -155.74831432 351.07431578 -167.9375 356.6875 C-169.07087296 357.20935883 -169.07087296 357.20935883 -170.22714233 357.74176025 C-171.74090082 358.43878143 -173.25465916 359.13580291 -174.76841736 359.83282471 C-175.88465233 360.34676788 -175.88465233 360.34676788 -177.0234375 360.87109375 C-177.76304214 361.21162781 -178.50264679 361.55216187 -179.2646637 361.90301514 C-186.81146544 365.37618926 -194.36567457 368.83300817 -201.92605591 372.27651978 C-203.32146152 372.91234253 -204.71655622 373.54884821 -206.11129761 374.18612671 C-214.34482008 377.94735609 -222.61752712 381.58112838 -231 385 C-229.75052431 381.71162188 -228.3539948 378.70694453 -226.55859375 375.68359375 C-225.82068604 374.43666748 -225.82068604 374.43666748 -225.06787109 373.16455078 C-224.52984863 372.26462402 -223.99182617 371.36469727 -223.4375 370.4375 C-222.86596191 369.47569824 -222.29442383 368.51389648 -221.70556641 367.52294922 C-216.79292105 359.27742658 -211.80686545 351.07655979 -206.81195068 342.88070679 C-200.82026299 333.04782264 -194.92509033 323.16031506 -189.0625 313.25 C-184.10349111 304.86787206 -179.13382814 296.50314978 -173.90869141 288.28320312 C-169.43635573 281.19554388 -165.20472658 273.96210168 -160.9375 266.75 C-154.80305873 256.38392329 -148.63611842 246.04012794 -142.375 235.75 C-142.02788971 235.17934814 -141.68077942 234.60869629 -141.32315063 234.02075195 C-138.53772222 229.44258514 -135.74812004 224.86696603 -132.95825195 220.29150391 C-130.51182879 216.27888853 -128.06724706 212.26515859 -125.625 208.25 C-125.10412308 207.39387115 -125.10412308 207.39387115 -124.57272339 206.52044678 C-118.37935791 196.33433678 -112.29407597 186.08592153 -106.22515869 175.82531738 C-100.27456942 165.76978579 -94.20976841 155.79527049 -88.05615234 145.86230469 C-82.79163671 137.3412933 -77.66149197 128.74576968 -72.5625 120.125 C-66.55338676 109.96700386 -60.50949814 99.8328441 -54.375 89.75 C-54.02734589 89.17844177 -53.67969177 88.60688354 -53.32150269 88.01800537 C-50.53662426 83.44075371 -47.7475642 78.86605443 -44.95825195 74.29150391 C-42.51182877 70.27888852 -40.0672855 66.26513521 -37.625 62.25 C-37.27974274 61.6825708 -36.93448547 61.1151416 -36.57876587 60.53051758 C-30.66918769 50.81203226 -24.85604646 41.03799319 -19.0625 31.25 C-8.84603022 13.99626519 -8.84603022 13.99626519 -3.875 6 C-3.28150757 5.0394873 -3.28150757 5.0394873 -2.67602539 4.05957031 C-1.81353332 2.68737864 -0.91220268 1.33965997 0 0 Z " fill="#FDED5B" transform="translate(639,262)" data-index="3" style="opacity: 1;"></path>
<path d="M0 0 C0 79.86 0 159.72 0 242 C-3.85543044 240.45782782 -7.08953498 238.90199218 -10.6484375 236.83984375 C-11.72778564 236.21609863 -12.80713379 235.59235352 -13.91918945 234.94970703 C-15.05960693 234.28567871 -16.20002441 233.62165039 -17.375 232.9375 C-18.56786493 232.24577999 -19.76081798 231.55421194 -20.95385742 230.86279297 C-27.90930292 226.82623178 -34.82731548 222.73455933 -41.70703125 218.5703125 C-47.9359222 214.8206996 -54.2246272 211.17106907 -60.5 207.5 C-75.6463357 198.63806147 -75.6463357 198.63806147 -82.5 194.5 C-89.58467648 190.22277108 -96.73103364 186.05209327 -103.875 181.875 C-113.11665709 176.47102028 -122.33018696 171.02541914 -131.5 165.5 C-141.03011587 159.75888359 -150.60780707 154.10473016 -160.21170044 148.48840332 C-172.44296141 141.33548593 -184.63435664 134.11723851 -196.81933594 126.88574219 C-202.7657037 123.36027822 -208.71921776 119.84689568 -214.67358398 116.33496094 C-220.46503326 112.91638528 -226.23749948 109.46714402 -232 106 C-229.30936735 102.73999318 -225.78635432 101.31130387 -222.01953125 99.62109375 C-221.31189133 99.29722183 -220.6042514 98.97334991 -219.87516785 98.6396637 C-217.52388224 97.56569609 -215.16827735 96.50157446 -212.8125 95.4375 C-211.14755612 94.67954223 -209.48284673 93.92106917 -207.81835938 93.16210938 C-194.22332831 86.97214286 -180.59427654 80.85666482 -166.96582031 74.74072266 C-155.6383495 69.65465052 -144.34061437 64.50704576 -133.0625 59.3125 C-126.89284694 56.47129467 -126.89284694 56.47129467 -123.8671875 55.078125 C-123.12182236 54.73491714 -122.37645721 54.39170929 -121.60850525 54.0381012 C-113.97731053 50.52613303 -106.33512629 47.03852517 -98.6875 43.5625 C-98.02328033 43.26056732 -97.35906067 42.95863464 -96.67471313 42.64755249 C-88.57383494 38.96693636 -80.46430852 35.30585168 -72.34765625 31.66015625 C-71.52192108 31.28924866 -70.69618591 30.91834106 -69.84542847 30.53619385 C-66.47567294 29.02268966 -63.10590487 27.50921385 -59.73583984 25.99639893 C-45.24578714 19.48976186 -30.80253408 12.88461416 -16.38574219 6.21728516 C-15.63982315 5.87295944 -14.89390411 5.52863373 -14.12538147 5.1738739 C-12.73626016 4.53253346 -11.34774112 3.88988623 -9.95994568 3.24568176 C-2.92662419 0 -2.92662419 0 0 0 Z " fill="#53BA68" transform="translate(640,542)" data-index="4" style="opacity: 1;"></path>
<path d="M0 0 C5.70636062 1.90212021 10.75667422 3.66897179 16.12890625 6.16015625 C16.78357376 6.4617868 17.43824127 6.76341736 18.11274719 7.07418823 C19.52504126 7.72534936 20.93638964 8.37856484 22.34686279 9.03366089 C26.23056322 10.83707116 30.12162004 12.62450678 34.01171875 14.4140625 C34.82703064 14.78959763 35.64234253 15.16513275 36.48236084 15.55204773 C44.75425227 19.3575851 53.05913715 23.08848136 61.36761475 26.81329346 C75.25453128 33.03960527 89.11420551 39.32115234 102.9375 45.6875 C103.70256866 46.03981689 104.46763733 46.39213379 105.25588989 46.75512695 C106.01779633 47.10599365 106.77970276 47.45686035 107.56469727 47.81835938 C109.08739003 48.51955799 110.61009502 49.22073006 112.1328125 49.921875 C112.87818771 50.26508789 113.62356293 50.60830078 114.39152527 50.96191406 C122.02271124 54.47387405 129.66488405 57.96147953 137.3125 61.4375 C137.97671967 61.73943268 138.64093933 62.04136536 139.32528687 62.35244751 C149.09752356 66.79244169 158.88465011 71.19889128 168.67626953 75.59594727 C177.12142029 79.38863645 185.5625037 83.19031306 194 87 C195.32085602 87.5963324 195.32085602 87.5963324 196.668396 88.20471191 C201.93390139 90.58352797 207.19557938 92.97052745 212.45251465 95.3682251 C214.10083553 96.1189451 215.75016098 96.86746357 217.4005127 97.6137085 C219.67477199 98.64267286 221.94522962 99.67958833 224.21484375 100.71875 C224.89193893 101.02309967 225.56903412 101.32744934 226.26664734 101.64102173 C230.88575955 103.7715191 230.88575955 103.7715191 232 106 C231.23671387 106.44690186 230.47342773 106.89380371 229.68701172 107.35424805 C214.31963374 116.35329798 198.96229945 125.36850833 183.63720703 134.43945312 C179.09280901 137.12856553 174.54627274 139.8140587 170 142.5 C168.16665695 143.58331689 166.33332361 144.66665021 164.5 145.75 C131.50000001 165.25 131.50000001 165.25 128.7512207 166.87426758 C126.9138054 167.96002039 125.07640311 169.04579521 123.23901367 170.1315918 C118.71823958 172.80308561 114.19725666 175.47422455 109.67578125 178.14453125 C107.88800379 179.20049197 106.10024351 180.2564818 104.3125 181.3125 C103.41281494 181.84391602 102.51312988 182.37533203 101.58618164 182.92285156 C96.59897908 185.86973541 91.61440187 188.82097996 86.6328125 191.77734375 C74.69084049 198.86363421 62.73448817 205.92336636 50.75 212.9375 C40.28487125 219.0631598 29.84602336 225.22654523 19.48632812 231.52929688 C16.72217085 233.21054796 13.95486931 234.88654265 11.1875 236.5625 C10.30763428 237.10044189 9.42776855 237.63838379 8.52124023 238.19262695 C7.70341064 238.68722412 6.88558105 239.18182129 6.04296875 239.69140625 C5.31102295 240.13685791 4.57907715 240.58230957 3.82495117 241.04125977 C2 242 2 242 0 242 C0 162.14 0 82.28 0 0 Z " fill="#A85CA5" transform="translate(640,542)" data-index="5" style="opacity: 1;"></path>
<path d="M0 0 C0.99 0.495 0.99 0.495 2 1 C1.22398437 2.06734375 0.44796875 3.1346875 -0.3515625 4.234375 C-6.30520391 12.44114888 -12.20316392 20.68159721 -18 29 C-22.96436174 36.12331696 -28.00388863 43.18540381 -33.10546875 50.2109375 C-37.7352015 56.6006413 -42.25695406 63.06257904 -46.76733398 69.53686523 C-50.64182201 75.088202 -54.57948317 80.5886333 -58.5625 86.0625 C-63.01031557 92.17580311 -67.32345543 98.36528733 -71.5625 104.625 C-76.07228834 111.28117989 -80.75597562 117.75913755 -85.62353516 124.15722656 C-89.51021771 129.28739141 -93.17474987 134.54295748 -96.79003906 139.86669922 C-100.22833834 144.91631836 -103.77841149 149.87462896 -107.375 154.8125 C-111.90193162 161.03240858 -116.30567697 167.32174293 -120.625 173.6875 C-124.93370399 180.03463392 -129.34371059 186.28161545 -133.91113281 192.44482422 C-137.81886334 197.72435747 -141.60720266 203.08245089 -145.38134766 208.45800781 C-149.01952921 213.63205092 -152.71769353 218.75942932 -156.4375 223.875 C-160.94112138 230.07522799 -165.32107199 236.34715397 -169.625 242.6875 C-173.933847 249.0345408 -178.34370633 255.2816097 -182.91113281 261.44482422 C-186.81886334 266.72435747 -190.60720266 272.08245089 -194.38134766 277.45800781 C-198.54702489 283.38222936 -202.79528292 289.24364525 -207.05615234 295.09960938 C-211.71858381 301.54000376 -216.20007894 308.09744558 -220.59936523 314.72021484 C-221.35455444 315.84290771 -221.35455444 315.84290771 -222.125 316.98828125 C-222.56070313 317.64352783 -222.99640625 318.29877441 -223.4453125 318.97387695 C-225.39513946 321.51495955 -227.73516823 323.73516823 -230 326 C-230 263.3 -230 200.6 -230 136 C-221.42 131.05 -212.84 126.1 -204 121 C-199.40921619 118.30256389 -194.82317051 115.60153631 -190.25 112.875 C-187.99095871 111.53242876 -185.73184306 110.18998261 -183.47265625 108.84765625 C-182.38484863 108.20070801 -181.29704102 107.55375977 -180.17626953 106.88720703 C-175.35162028 104.02060144 -170.51994976 101.16593001 -165.6875 98.3125 C-163.89061652 97.25131645 -162.09374144 96.19011866 -160.296875 95.12890625 C-159.41966797 94.61086426 -158.54246094 94.09282227 -157.63867188 93.55908203 C-155.0136083 92.00804058 -152.38948065 90.45542759 -149.765625 88.90234375 C-139.84928505 83.03455188 -129.91909161 77.19115677 -119.97540283 71.36987305 C-110.84587301 66.02516123 -101.72750071 60.6659498 -92.66796875 55.203125 C-81.83925934 48.68352224 -70.93024311 42.29512913 -60.01953125 35.9140625 C-48.14962141 28.97138878 -36.29204094 22.01200979 -24.5 14.9375 C-23.4702002 14.3202002 -22.44040039 13.70290039 -21.37939453 13.06689453 C-17.10608625 10.49814353 -12.8434504 7.91818186 -8.62890625 5.25390625 C-8.01015625 4.86404541 -7.39140625 4.47418457 -6.75390625 4.07250977 C-5.21741176 3.09822855 -3.68834628 2.11225601 -2.16015625 1.125 C-1.44730469 0.75375 -0.73445312 0.3825 0 0 Z " fill="#6676B8" transform="translate(870,692)" data-index="6" style="opacity: 1;"></path>
</svg>